<svg xmlns="http://www.w3.org/2000/svg" viewBox="0 0 1990 238.74"><defs><style>.cls-1{fill:#d1ff03;}</style></defs><g id="Layer_2" data-name="Layer 2"><g id="Layer_1-2" data-name="Layer 1"><path class="cls-1" d="M64.46,238.74H0L137.79,0h64.45l36.5,63.1L274.89,0h64.46L477.13,238.74H413L307.29,55.59,201.56,238.74H137.1l69.24-120-36.15-63.1Z"/><path class="cls-1" d="M781,75.71V163q0,32.74-22.85,54.23t-55.25,21.49H562.74q-32.41,0-55.26-21.49T484.63,163V75.71q0-32.73,22.85-54.22T562.74,0H702.91q32.4,0,55.25,21.49T781,75.71ZM725.08,163V75.71q0-20.11-22.17-20.12H562.74q-22.51,0-22.51,20.12V163q0,20.13,22.51,20.12H702.91Q725.08,183.14,725.08,163Z"/><path class="cls-1" d="M1075.34,0V238.74H1019.4L875.82,78.1V238.74H820.23V0h55.59L1019.4,159.61V0Z"/><path class="cls-1" d="M1175.26,238.74h-55.59V0h55.59Z"/><path class="cls-1" d="M1427,0h55.93V238.74H1427V147.33H1275.53v91.41h-55.59V0h55.59V91.4H1427Z"/><path class="cls-1" d="M1780.62,0V55.59H1672.85V238.74h-55.59V55.59H1509.49V0Z"/><path class="cls-1" d="M1838.68,55.32V17.59h-25.61V.08h72.75V17.59h-25.61V55.32Z"/><path class="cls-1" d="M1893,0h27l21.54,27.62L1963.08,0H1990V55.24h-21.54V25.77l-21.58,29.47h-10.76l-21.58-29.47V55.24H1893Z"/></g></g></svg>